<?xml version="1.0" encoding="utf-8"?>
<!-- Generator: Adobe Illustrator 23.1.0, SVG Export Plug-In . SVG Version: 6.00 Build 0)  -->
<svg version="1.1" id="Слой_1" xmlns="http://www.w3.org/2000/svg" xmlns:xlink="http://www.w3.org/1999/xlink" x="0px" y="0px"
	 viewBox="0 0 1701 842" style="enable-background:new 0 0 1701 842;" xml:space="preserve">
<style type="text/css">
	.st0{fill-rule:evenodd;clip-rule:evenodd;fill:#F02400;}
</style>
<path class="st0" d="M249.37,601.02c5.04,7.93,9.37,10.81,18.74,10.81h85.05c12.97,0,13.7-9.37,7.93-17.3L227.75,419.4
	l129.01-119.64c7.93-7.21,5.04-18.02-7.21-18.02h-86.49c-9.37,0-13.69,1.44-20.9,9.37L125.4,411.47V129.59
	c0-5.77-5.04-10.81-10.81-10.81H41.08c-6.49,0-10.81,5.05-10.81,10.81v471.43c0,5.77,4.33,10.81,10.81,10.81h73.52
	c5.77,0,10.81-5.04,10.81-10.81v-86.49l36.04-33.88L249.37,601.02L249.37,601.02z M1350.1,148.52c7.99-1.87,15.33-5.86,22.68-9.85
	c19.06-10.35,38.13-20.71,69.1-20.71c30.96,0,50.03,10.36,69.1,20.71c10.07,5.47,20.14,10.94,31.86,10.94
	c11.71,0,21.78-5.47,31.85-10.94c16.22-8.81,32.44-17.62,56-20.05c3.46-0.36,6.59,0.66,9.18,3c2.59,2.34,3.92,5.34,3.92,8.82v55.2
	c0,5.59-3.74,10.29-9.17,11.57c-7.99,1.87-15.33,5.86-22.68,9.85c-19.06,10.35-38.13,20.71-69.09,20.71
	c-30.97,0-50.04-10.35-69.1-20.71c-10.07-5.47-20.14-10.94-31.85-10.94c-11.71,0-21.79,5.47-31.86,10.94
	c-16.22,8.81-32.45,17.62-56,20.05c-3.47,0.36-6.59-0.66-9.18-3c-2.58-2.33-3.92-5.33-3.92-8.82v-55.2
	C1340.92,154.5,1344.66,149.8,1350.1,148.52L1350.1,148.52z M1407.67,447.5c0-53.33,32.43-91.53,84.33-91.53
	c51.89,0,84.33,38.2,84.33,91.53c0,53.33-32.43,91.53-84.33,91.53C1440.1,539.04,1407.67,500.84,1407.67,447.5L1407.67,447.5z
	 M1313.97,447.5c0,107.39,78.56,171.54,178.02,171.54c99.46,0,178.74-64.15,178.74-171.54s-79.28-172.26-178.74-172.26
	C1392.53,275.25,1313.97,340.11,1313.97,447.5L1313.97,447.5z M1304.75,296.87c2.16-6.49,2.16-15.13-8.65-15.13h-81.44
	c-10.09,0-15.14,2.88-18.02,11.53l-70.63,222.35l-84.32-222.35c-2.88-8.65-8.65-11.53-18.02-11.53h-88.65
	c-10.81,0-11.53,8.65-8.65,15.13L1077,634.29c-10.09,18.02-20.9,30.99-33.16,41.08c-15.86,12.13-33.87,17.18-54.05,17.18
	c-10.81,0-16.58-1.44-22.34-1.44c-5.05,0-8.65,2.88-8.65,8.65v72.79c0,5.05,3.6,8.65,8.65,8.65c60.54,3.6,108.83-12.25,145.59-45.4
	c29.55-26.67,49.73-61.14,66.31-106.55L1304.75,296.87L1304.75,296.87z M786.01,292.55v308.48c0,5.76,4.33,10.81,10.81,10.81h73.51
	c5.77,0,10.81-5.05,10.81-10.81V292.55c0-6.48-5.04-10.81-10.81-10.81h-73.51C790.34,281.74,786.01,286.06,786.01,292.55
	L786.01,292.55z M833.58,227.64c30.27,0,54.06-24.5,54.06-54.78c0-30.27-23.79-54.77-54.06-54.77c-30.99,0-54.78,24.51-54.78,54.77
	C778.8,203.14,802.59,227.64,833.58,227.64L833.58,227.64z M552.65,541.2c-25.94,0-42.52-6.48-57.66-21.62
	c-12.98-14.41-22.34-36.76-22.34-69.91c0-25.22,6.49-45.41,17.3-61.98c12.25-18.02,32.43-29.55,57.66-29.55
	c20.9,0,41.08,5.76,55.5,22.34c12.97,15.85,20.9,41.8,20.9,78.56v60.54C601.66,533.99,577.87,541.2,552.65,541.2L552.65,541.2z
	 M636.97,589.49v11.53c0,5.76,5.04,10.81,10.81,10.81h61.27c5.76,0,10.81-5.05,10.81-10.81V455.43c0-57.66-13.69-95.14-38.92-126.13
	c-30.99-36.76-81.44-54.06-133.34-54.06c-54.06,0-99.46,18.74-129.01,52.61c-25.23,29.55-41.08,69.19-41.08,119.64
	c0,56.94,19.46,99.46,46.85,128.29c31.71,33.15,77.84,43.25,115.32,43.25c39.64,0,72.07-11.54,95.86-29.55H636.97z"/>
</svg>
