<svg width="41" height="61" xmlns="http://www.w3.org/2000/svg" version="1.1" xmlns:xlink="http://www.w3.org/1999/xlink" xmlns:avocode="https://avocode.com/" viewBox="0 0 41 61"><defs><mask id="Mask1018" x="-1" y="-1" width="2" height="2"><rect width="31" height="51" x="5" y="5" fill="#ffffff"></rect><path d="M36.00583,55.65273v0l-17.83921,-25.32209v0l17.83921,-25.3233v0h-12.58629v0l-17.84104,25.3233v0l17.84104,25.32209v0z" fill="#000000"></path></mask><filter id="Filter1022" width="61" height="81" x="-10" y="-10" filterUnits="userSpaceOnUse"><feOffset dx="0" dy="0" result="FeOffset1023Out" in="SourceGraphic"></feOffset><feGaussianBlur stdDeviation="2 2" result="FeGaussianBlur1024Out" in="FeOffset1023Out"></feGaussianBlur></filter></defs><desc>Generated with Avocode.</desc><g><g><title>btn_arrow</title><g filter="url(#Filter1022)"><path d="M36.00583,55.65273v0l-17.83921,-25.32209v0l17.83921,-25.3233v0h-12.58629v0l-17.84104,25.3233v0l17.84104,25.32209v0z" fill="none" stroke-opacity="0.58" stroke-width="0" mask="url(&quot;#Mask1018&quot;)"></path><path d="M36.00583,55.65273v0l-17.83921,-25.32209v0l17.83921,-25.3233v0h-12.58629v0l-17.84104,25.3233v0l17.84104,25.32209v0z" fill="#ffffff" fill-opacity="0.58"></path></g><g filter="url(#Filter1022)"><path d="M36.00583,55.65273v0l-17.83921,-25.32209v0l17.83921,-25.3233v0h-12.58629v0l-17.84104,25.3233v0l17.84104,25.32209v0z" fill="none" stroke-opacity="0.58" stroke-width="0" mask="url(&quot;#Mask1018&quot;)"></path><path d="M36.00583,55.65273v0l-17.83921,-25.32209v0l17.83921,-25.3233v0h-12.58629v0l-17.84104,25.3233v0l17.84104,25.32209v0z" fill="#ffffff" fill-opacity="0.58"></path></g><path d="M36.00583,55.65273v0l-17.83921,-25.32209v0l17.83921,-25.3233v0h-12.58629v0l-17.84104,25.3233v0l17.84104,25.32209v0z" fill="#e9e9e9" fill-opacity="1"></path></g></g></svg>
