<svg width="883" height="82" viewBox="0 0 883 82" fill="none" xmlns="http://www.w3.org/2000/svg">
<g filter="url(#filter0_d_2_30)">
<path d="M59.8828 11.3906V26.3516H37.2266V37.1719H54.0234V52.1328H37.2266V71H10.8594V11.3906H59.8828ZM92.4609 11.3906V71H66.0938V11.3906H92.4609ZM135.625 10.4531C140.547 10.4531 145.625 11.1823 150.859 12.6406C153.464 13.3698 155.898 14.2161 158.164 15.1797C160.456 16.1432 162.578 17.224 164.531 18.4219L151.797 36.3516C146.484 33.7995 141.589 32.5234 137.109 32.5234C134.115 32.5234 131.706 33.3047 129.883 34.8672C128.06 36.3776 127.148 38.4219 127.148 41C127.148 43.526 127.917 45.375 129.453 46.5469C130.99 47.6927 133.398 48.2656 136.68 48.2656V38.9297H163.086V71.0781L150.078 71.7031C147.969 71.8073 146.185 71.8724 144.727 71.8984C143.268 71.9505 142.122 71.9766 141.289 71.9766C132.747 71.9766 125.781 70.9349 120.391 68.8516C115.078 66.7943 110.755 63.2396 107.422 58.1875C104.141 53.1615 102.5 47.4323 102.5 41C102.5 35.2708 103.854 30.0104 106.562 25.2188C109.245 20.4792 113.086 16.8333 118.086 14.2812C123.06 11.7292 128.906 10.4531 135.625 10.4531ZM198.789 11.3906V33.2266H212.227V11.3906H238.633V71H212.227V48.8516H198.789V71H172.383V11.3906H198.789ZM298.789 11.3906V37.7969H285.508V71H259.102V37.7969H245.82V11.3906H298.789ZM381.758 11.3906V26.3516H359.102V37.1719H375.898V52.1328H359.102V71H332.734V11.3906H381.758ZM410.195 39.5547C410.195 41.4297 410.755 42.9401 411.875 44.0859C413.021 45.2318 414.427 45.8047 416.094 45.8047C417.76 45.8047 419.167 45.2318 420.312 44.0859C421.458 42.888 422.031 41.3776 422.031 39.5547C422.031 38.6432 421.875 37.8099 421.562 37.0547C421.276 36.2734 420.872 35.6094 420.352 35.0625C419.831 34.5156 419.193 34.0859 418.438 33.7734C417.708 33.4609 416.914 33.3047 416.055 33.3047C414.388 33.3047 412.995 33.8906 411.875 35.0625C410.755 36.2083 410.195 37.7057 410.195 39.5547ZM416.094 10.4531C421.719 10.4531 426.888 11.8333 431.602 14.5938C436.315 17.3542 440 21.0781 442.656 25.7656C445.339 30.4271 446.68 35.5573 446.68 41.1562C446.68 46.7292 445.339 51.8854 442.656 56.625C440 61.3646 436.315 65.1146 431.602 67.875C426.862 70.6094 421.693 71.9766 416.094 71.9766C410.495 71.9766 405.339 70.6094 400.625 67.875C395.964 65.1667 392.279 61.4297 389.57 56.6641C386.888 51.9245 385.547 46.7552 385.547 41.1562C385.547 35.6875 386.862 30.5833 389.492 25.8438C392.122 21.1562 395.807 17.4193 400.547 14.6328C405.286 11.8464 410.469 10.4531 416.094 10.4531ZM495.508 11.3906C499.753 11.3906 503.529 12.1979 506.836 13.8125C510.143 15.401 512.63 17.5755 514.297 20.3359C515.964 23.0443 516.797 26.013 516.797 29.2422C516.797 32.0026 516.211 34.5026 515.039 36.7422C513.893 38.9818 512.214 40.8828 510 42.4453C513.255 46.1172 515.833 50.349 517.734 55.1406C519.661 59.9062 520.924 65.1927 521.523 71H494.141C493.594 63.1354 492.435 57.4974 490.664 54.0859C488.893 50.6484 486.237 48.9297 482.695 48.9297H482.539V71H456.172V11.3906H495.508ZM482.539 35.1406H483.164C485.69 35.1406 487.526 34.6979 488.672 33.8125C489.818 32.9271 490.391 31.5078 490.391 29.5547C490.391 27.7578 489.857 26.3255 488.789 25.2578C487.721 24.1901 486.159 23.6562 484.102 23.6562H482.539V35.1406ZM580.82 11.3906V56.0391H603.945V71H554.414V11.3906H580.82ZM662.93 11.3906L683.633 71H657.266L653.828 60.9219H634.453L631.016 71H604.609L625.312 11.3906H662.93ZM639.258 46.8594H649.023L644.219 32.2891H644.062L639.258 46.8594ZM728.945 11.3906C733.19 11.3906 736.966 12.1979 740.273 13.8125C743.581 15.401 746.068 17.5755 747.734 20.3359C749.401 23.0443 750.234 26.013 750.234 29.2422C750.234 32.0026 749.648 34.5026 748.477 36.7422C747.331 38.9818 745.651 40.8828 743.438 42.4453C746.693 46.1172 749.271 50.349 751.172 55.1406C753.099 59.9062 754.362 65.1927 754.961 71H727.578C727.031 63.1354 725.872 57.4974 724.102 54.0859C722.331 50.6484 719.674 48.9297 716.133 48.9297H715.977V71H689.609V11.3906H728.945ZM715.977 35.1406H716.602C719.128 35.1406 720.964 34.6979 722.109 33.8125C723.255 32.9271 723.828 31.5078 723.828 29.5547C723.828 27.7578 723.294 26.3255 722.227 25.2578C721.159 24.1901 719.596 23.6562 717.539 23.6562H715.977V35.1406ZM787.852 11.3906V71H761.484V11.3906H787.852ZM852.227 11.3906L872.93 71H846.562L843.125 60.9219H823.75L820.312 71H793.906L814.609 11.3906H852.227ZM828.555 46.8594H838.32L833.516 32.2891H833.359L828.555 46.8594Z" fill="url(#paint0_linear_2_30)"/>
<path d="M59.8828 11.3906H61.8828V9.39062H59.8828V11.3906ZM59.8828 26.3516V28.3516H61.8828V26.3516H59.8828ZM37.2266 26.3516V24.3516H35.2266V26.3516H37.2266ZM37.2266 37.1719H35.2266V39.1719H37.2266V37.1719ZM54.0234 37.1719H56.0234V35.1719H54.0234V37.1719ZM54.0234 52.1328V54.1328H56.0234V52.1328H54.0234ZM37.2266 52.1328V50.1328H35.2266V52.1328H37.2266ZM37.2266 71V73H39.2266V71H37.2266ZM10.8594 71H8.85938V73H10.8594V71ZM10.8594 11.3906V9.39062H8.85938V11.3906H10.8594ZM57.8828 11.3906V26.3516H61.8828V11.3906H57.8828ZM59.8828 24.3516H37.2266V28.3516H59.8828V24.3516ZM35.2266 26.3516V37.1719H39.2266V26.3516H35.2266ZM37.2266 39.1719H54.0234V35.1719H37.2266V39.1719ZM52.0234 37.1719V52.1328H56.0234V37.1719H52.0234ZM54.0234 50.1328H37.2266V54.1328H54.0234V50.1328ZM35.2266 52.1328V71H39.2266V52.1328H35.2266ZM37.2266 69H10.8594V73H37.2266V69ZM12.8594 71V11.3906H8.85938V71H12.8594ZM10.8594 13.3906H59.8828V9.39062H10.8594V13.3906ZM92.4609 11.3906H94.4609V9.39062H92.4609V11.3906ZM92.4609 71V73H94.4609V71H92.4609ZM66.0938 71H64.0938V73H66.0938V71ZM66.0938 11.3906V9.39062H64.0938V11.3906H66.0938ZM90.4609 11.3906V71H94.4609V11.3906H90.4609ZM92.4609 69H66.0938V73H92.4609V69ZM68.0938 71V11.3906H64.0938V71H68.0938ZM66.0938 13.3906H92.4609V9.39062H66.0938V13.3906ZM150.859 12.6406L151.399 10.7147L151.396 10.714L150.859 12.6406ZM158.164 15.1797L157.381 17.0202L157.389 17.0234L158.164 15.1797ZM164.531 18.4219L166.162 19.58L167.401 17.8356L165.577 16.717L164.531 18.4219ZM151.797 36.3516L150.931 38.1543L152.451 38.8846L153.427 37.5097L151.797 36.3516ZM129.883 34.8672L131.159 36.4072L131.172 36.3966L131.184 36.3857L129.883 34.8672ZM129.453 46.5469L128.24 48.1371L128.249 48.1437L128.257 48.1501L129.453 46.5469ZM136.68 48.2656V50.2656H138.68V48.2656H136.68ZM136.68 38.9297V36.9297H134.68V38.9297H136.68ZM163.086 38.9297H165.086V36.9297H163.086V38.9297ZM163.086 71.0781L163.182 73.0758L165.086 72.9843V71.0781H163.086ZM150.078 71.7031L149.982 69.7054L149.979 69.7056L150.078 71.7031ZM144.727 71.8984L144.691 69.8988L144.673 69.8991L144.655 69.8997L144.727 71.8984ZM120.391 68.8516L119.668 70.7166L119.67 70.7171L120.391 68.8516ZM107.422 58.1875L105.747 59.2808L105.752 59.2889L107.422 58.1875ZM106.562 25.2188L104.822 24.2337L104.821 24.2346L106.562 25.2188ZM118.086 14.2812L118.995 16.0626L118.999 16.0607L118.086 14.2812ZM135.625 12.4531C140.348 12.4531 145.245 13.1526 150.323 14.5672L151.396 10.714C146.005 9.21198 140.746 8.45312 135.625 8.45312V12.4531ZM150.32 14.5666C152.849 15.2747 155.202 16.0934 157.381 17.0202L158.947 13.3392C156.595 12.3389 154.078 11.4648 151.399 10.7147L150.32 14.5666ZM157.389 17.0234C159.595 17.9508 161.626 18.9861 163.486 20.1268L165.577 16.717C163.53 15.4618 161.317 14.3356 158.939 13.336L157.389 17.0234ZM162.901 17.2638L150.166 35.1935L153.427 37.5097L166.162 19.58L162.901 17.2638ZM152.663 34.5488C147.162 31.9062 141.967 30.5234 137.109 30.5234V34.5234C141.21 34.5234 145.807 35.6928 150.931 38.1543L152.663 34.5488ZM137.109 30.5234C133.759 30.5234 130.85 31.4043 128.581 33.3487L131.184 36.3857C132.562 35.205 134.47 34.5234 137.109 34.5234V30.5234ZM128.607 33.3271C126.281 35.2544 125.148 37.8866 125.148 41H129.148C129.148 38.9571 129.839 37.5008 131.159 36.4072L128.607 33.3271ZM125.148 41C125.148 43.9412 126.063 46.4761 128.24 48.1371L130.666 44.9566C129.771 44.2739 129.148 43.1109 129.148 41H125.148ZM128.257 48.1501C130.309 49.6802 133.243 50.2656 136.68 50.2656V46.2656C133.554 46.2656 131.67 45.7052 130.649 44.9436L128.257 48.1501ZM138.68 48.2656V38.9297H134.68V48.2656H138.68ZM136.68 40.9297H163.086V36.9297H136.68V40.9297ZM161.086 38.9297V71.0781H165.086V38.9297H161.086ZM162.99 69.0804L149.982 69.7054L150.174 73.7008L163.182 73.0758L162.99 69.0804ZM149.979 69.7056C147.883 69.8091 146.121 69.8732 144.691 69.8988L144.762 73.8981C146.249 73.8716 148.055 73.8055 150.177 73.7007L149.979 69.7056ZM144.655 69.8997C143.206 69.9515 142.087 69.9766 141.289 69.9766V73.9766C142.157 73.9766 143.331 73.9496 144.798 73.8972L144.655 69.8997ZM141.289 69.9766C132.887 69.9766 126.19 68.9487 121.112 66.986L119.67 70.7171C125.372 72.9211 132.608 73.9766 141.289 73.9766V69.9766ZM121.113 66.9865C116.213 65.0889 112.211 61.8144 109.091 57.0861L105.752 59.2889C109.299 64.6648 113.944 68.4997 119.668 70.7166L121.113 66.9865ZM109.097 57.0942C106.043 52.4168 104.5 47.0731 104.5 41H100.5C100.5 47.7915 102.238 53.9061 105.747 59.2808L109.097 57.0942ZM104.5 41C104.5 35.601 105.772 30.6818 108.304 26.2029L104.821 24.2346C101.936 29.3391 100.5 34.9406 100.5 41H104.5ZM108.303 26.2038C110.786 21.8164 114.333 18.4423 118.995 16.0626L117.177 12.4999C111.839 15.2244 107.703 19.142 104.822 24.2337L108.303 26.2038ZM118.999 16.0607C123.639 13.68 129.16 12.4531 135.625 12.4531V8.45312C128.652 8.45312 122.481 9.77832 117.173 12.5018L118.999 16.0607ZM198.789 11.3906H200.789V9.39062H198.789V11.3906ZM198.789 33.2266H196.789V35.2266H198.789V33.2266ZM212.227 33.2266V35.2266H214.227V33.2266H212.227ZM212.227 11.3906V9.39062H210.227V11.3906H212.227ZM238.633 11.3906H240.633V9.39062H238.633V11.3906ZM238.633 71V73H240.633V71H238.633ZM212.227 71H210.227V73H212.227V71ZM212.227 48.8516H214.227V46.8516H212.227V48.8516ZM198.789 48.8516V46.8516H196.789V48.8516H198.789ZM198.789 71V73H200.789V71H198.789ZM172.383 71H170.383V73H172.383V71ZM172.383 11.3906V9.39062H170.383V11.3906H172.383ZM196.789 11.3906V33.2266H200.789V11.3906H196.789ZM198.789 35.2266H212.227V31.2266H198.789V35.2266ZM214.227 33.2266V11.3906H210.227V33.2266H214.227ZM212.227 13.3906H238.633V9.39062H212.227V13.3906ZM236.633 11.3906V71H240.633V11.3906H236.633ZM238.633 69H212.227V73H238.633V69ZM214.227 71V48.8516H210.227V71H214.227ZM212.227 46.8516H198.789V50.8516H212.227V46.8516ZM196.789 48.8516V71H200.789V48.8516H196.789ZM198.789 69H172.383V73H198.789V69ZM174.383 71V11.3906H170.383V71H174.383ZM172.383 13.3906H198.789V9.39062H172.383V13.3906ZM298.789 11.3906H300.789V9.39062H298.789V11.3906ZM298.789 37.7969V39.7969H300.789V37.7969H298.789ZM285.508 37.7969V35.7969H283.508V37.7969H285.508ZM285.508 71V73H287.508V71H285.508ZM259.102 71H257.102V73H259.102V71ZM259.102 37.7969H261.102V35.7969H259.102V37.7969ZM245.82 37.7969H243.82V39.7969H245.82V37.7969ZM245.82 11.3906V9.39062H243.82V11.3906H245.82ZM296.789 11.3906V37.7969H300.789V11.3906H296.789ZM298.789 35.7969H285.508V39.7969H298.789V35.7969ZM283.508 37.7969V71H287.508V37.7969H283.508ZM285.508 69H259.102V73H285.508V69ZM261.102 71V37.7969H257.102V71H261.102ZM259.102 35.7969H245.82V39.7969H259.102V35.7969ZM247.82 37.7969V11.3906H243.82V37.7969H247.82ZM245.82 13.3906H298.789V9.39062H245.82V13.3906ZM381.758 11.3906H383.758V9.39062H381.758V11.3906ZM381.758 26.3516V28.3516H383.758V26.3516H381.758ZM359.102 26.3516V24.3516H357.102V26.3516H359.102ZM359.102 37.1719H357.102V39.1719H359.102V37.1719ZM375.898 37.1719H377.898V35.1719H375.898V37.1719ZM375.898 52.1328V54.1328H377.898V52.1328H375.898ZM359.102 52.1328V50.1328H357.102V52.1328H359.102ZM359.102 71V73H361.102V71H359.102ZM332.734 71H330.734V73H332.734V71ZM332.734 11.3906V9.39062H330.734V11.3906H332.734ZM379.758 11.3906V26.3516H383.758V11.3906H379.758ZM381.758 24.3516H359.102V28.3516H381.758V24.3516ZM357.102 26.3516V37.1719H361.102V26.3516H357.102ZM359.102 39.1719H375.898V35.1719H359.102V39.1719ZM373.898 37.1719V52.1328H377.898V37.1719H373.898ZM375.898 50.1328H359.102V54.1328H375.898V50.1328ZM357.102 52.1328V71H361.102V52.1328H357.102ZM359.102 69H332.734V73H359.102V69ZM334.734 71V11.3906H330.734V71H334.734ZM332.734 13.3906H381.758V9.39062H332.734V13.3906ZM411.875 44.0859L410.445 45.4838L410.453 45.492L410.461 45.5002L411.875 44.0859ZM420.312 44.0859L421.727 45.5002L421.742 45.4844L421.758 45.4684L420.312 44.0859ZM421.562 37.0547L419.685 37.7432L419.699 37.7816L419.714 37.8194L421.562 37.0547ZM418.438 33.7734L417.65 35.6117L417.661 35.6167L417.673 35.6215L418.438 33.7734ZM411.875 35.0625L413.305 36.4604L413.313 36.4523L413.321 36.4442L411.875 35.0625ZM442.656 25.7656L440.916 26.7517L440.923 26.7631L442.656 25.7656ZM442.656 56.625L440.916 55.6399L440.912 55.6472L442.656 56.625ZM431.602 67.875L432.601 69.6074L432.612 69.6008L431.602 67.875ZM400.625 67.875L399.62 69.6043L399.621 69.605L400.625 67.875ZM389.57 56.6641L387.83 57.6491L387.831 57.6522L389.57 56.6641ZM389.492 25.8438L387.748 24.8651L387.743 24.8733L389.492 25.8438ZM400.547 14.6328L399.533 12.9087L400.547 14.6328ZM408.195 39.5547C408.195 41.8565 408.898 43.9011 410.445 45.4838L413.305 42.6881C412.613 41.9791 412.195 41.0029 412.195 39.5547H408.195ZM410.461 45.5002C411.993 47.0329 413.914 47.8047 416.094 47.8047V43.8047C414.941 43.8047 414.048 43.4307 413.289 42.6717L410.461 45.5002ZM416.094 47.8047C418.274 47.8047 420.194 47.0329 421.727 45.5002L418.898 42.6717C418.139 43.4307 417.247 43.8047 416.094 43.8047V47.8047ZM421.758 45.4684C423.297 43.8597 424.031 41.8366 424.031 39.5547H420.031C420.031 40.9186 419.62 41.9164 418.867 42.7035L421.758 45.4684ZM424.031 39.5547C424.031 38.4111 423.834 37.3141 423.411 36.29L419.714 37.8194C419.916 38.3057 420.031 38.8754 420.031 39.5547H424.031ZM423.44 36.3662C423.069 35.354 422.528 34.4478 421.8 33.6832L418.903 36.4418C419.217 36.7709 419.483 37.1928 419.685 37.7432L423.44 36.3662ZM421.8 33.6832C421.071 32.9179 420.194 32.3358 419.202 31.9254L417.673 35.6215C418.191 35.8361 418.59 36.1134 418.903 36.4418L421.8 33.6832ZM419.225 31.9351C418.227 31.5073 417.162 31.3047 416.055 31.3047V35.3047C416.666 35.3047 417.19 35.4145 417.65 35.6117L419.225 31.9351ZM416.055 31.3047C413.859 31.3047 411.938 32.1016 410.429 33.6808L413.321 36.4442C414.052 35.6796 414.917 35.3047 416.055 35.3047V31.3047ZM410.445 33.6646C408.903 35.242 408.195 37.2701 408.195 39.5547H412.195C412.195 38.1413 412.607 37.1747 413.305 36.4604L410.445 33.6646ZM416.094 12.4531C421.375 12.4531 426.193 13.7442 430.591 16.3196L432.612 12.8679C427.583 9.92245 422.063 8.45312 416.094 8.45312V12.4531ZM430.591 16.3196C435.005 18.9045 438.436 22.3751 440.916 26.7517L444.396 24.7796C441.564 19.7811 437.625 15.8038 432.612 12.8679L430.591 16.3196ZM440.923 26.7631C443.423 31.1084 444.68 35.8924 444.68 41.1562H448.68C448.68 35.2222 447.254 29.7458 444.39 24.7681L440.923 26.7631ZM444.68 41.1562C444.68 46.3923 443.424 51.2081 440.916 55.6399L444.397 57.6101C447.253 52.5628 448.68 47.066 448.68 41.1562H444.68ZM440.912 55.6472C438.43 60.0749 434.999 63.5674 430.591 66.1492L432.612 69.6008C437.631 66.6618 441.57 62.6543 444.401 57.6028L440.912 55.6472ZM430.602 66.1426C426.174 68.6975 421.35 69.9766 416.094 69.9766V73.9766C422.035 73.9766 427.55 72.5213 432.601 69.6074L430.602 66.1426ZM416.094 69.9766C410.837 69.9766 406.029 68.6975 401.629 66.145L399.621 69.605C404.648 72.5212 410.152 73.9766 416.094 73.9766V69.9766ZM401.63 66.1457C397.28 63.6182 393.846 60.1393 391.309 55.6759L387.831 57.6522C390.712 62.7201 394.648 66.7151 399.62 69.6043L401.63 66.1457ZM391.311 55.679C388.804 51.2486 387.547 46.4201 387.547 41.1562H383.547C383.547 47.0903 384.972 52.6004 387.83 57.6491L391.311 55.679ZM387.547 41.1562C387.547 36.0239 388.777 31.2541 391.241 26.8142L387.743 24.8733C384.947 29.9125 383.547 35.3511 383.547 41.1562H387.547ZM391.236 26.8224C393.689 22.451 397.119 18.9683 401.561 16.3569L399.533 12.9087C394.496 15.8703 390.556 19.8615 387.748 24.8651L391.236 26.8224ZM401.561 16.3569C405.985 13.7554 410.817 12.4531 416.094 12.4531V8.45312C410.121 8.45312 404.587 9.93727 399.533 12.9087L401.561 16.3569ZM506.836 13.8125L505.959 15.6098L505.97 15.6153L506.836 13.8125ZM514.297 20.3359L512.585 21.3697L512.589 21.3769L512.594 21.3841L514.297 20.3359ZM515.039 36.7422L513.267 35.8149L513.263 35.8231L513.259 35.8312L515.039 36.7422ZM510 42.4453L508.847 40.8114L507.021 42.1L508.503 43.7721L510 42.4453ZM517.734 55.1406L515.875 55.8782L515.88 55.8904L517.734 55.1406ZM521.523 71V73H523.74L523.513 70.7948L521.523 71ZM494.141 71L492.145 71.1387L492.275 73H494.141V71ZM490.664 54.0859L488.886 55.0019L488.889 55.0074L490.664 54.0859ZM482.539 48.9297V46.9297H480.539V48.9297H482.539ZM482.539 71V73H484.539V71H482.539ZM456.172 71H454.172V73H456.172V71ZM456.172 11.3906V9.39062H454.172V11.3906H456.172ZM482.539 35.1406H480.539V37.1406H482.539V35.1406ZM482.539 23.6562V21.6562H480.539V23.6562H482.539ZM495.508 13.3906C499.495 13.3906 502.964 14.1476 505.959 15.6098L507.713 12.0152C504.094 10.2482 500.01 9.39062 495.508 9.39062V13.3906ZM505.97 15.6153C508.976 17.0592 511.146 18.9868 512.585 21.3697L516.009 19.3022C514.114 16.1642 511.31 13.7428 507.702 12.0097L505.97 15.6153ZM512.594 21.3841C514.063 23.7722 514.797 26.3771 514.797 29.2422H518.797C518.797 25.6489 517.864 22.3164 516 19.2877L512.594 21.3841ZM514.797 29.2422C514.797 31.71 514.276 33.8873 513.267 35.8149L516.811 37.6694C518.146 35.118 518.797 32.2952 518.797 29.2422H514.797ZM513.259 35.8312C512.271 37.7607 510.817 39.4208 508.847 40.8114L511.153 44.0792C513.611 42.3448 515.515 40.2029 516.82 37.6531L513.259 35.8312ZM508.503 43.7721C511.597 47.2614 514.056 51.2915 515.875 55.8782L519.593 54.4031C517.611 49.4065 514.914 44.9729 511.497 41.1186L508.503 43.7721ZM515.88 55.8904C517.728 60.46 518.952 65.56 519.534 71.2052L523.513 70.7948C522.897 64.8254 521.595 59.3525 519.589 54.3909L515.88 55.8904ZM521.523 69H494.141V73H521.523V69ZM496.136 70.8613C495.586 62.9506 494.41 56.9618 492.439 53.1645L488.889 55.0074C490.46 58.033 491.602 63.3202 492.145 71.1387L496.136 70.8613ZM492.442 53.17C491.432 51.2095 490.11 49.6266 488.43 48.5396C486.741 47.4464 484.804 46.9297 482.695 46.9297V50.9297C484.128 50.9297 485.291 51.2724 486.257 51.8979C487.234 52.5296 488.125 53.5249 488.886 55.0019L492.442 53.17ZM482.695 46.9297H482.539V50.9297H482.695V46.9297ZM480.539 48.9297V71H484.539V48.9297H480.539ZM482.539 69H456.172V73H482.539V69ZM458.172 71V11.3906H454.172V71H458.172ZM456.172 13.3906H495.508V9.39062H456.172V13.3906ZM482.539 37.1406H483.164V33.1406H482.539V37.1406ZM483.164 37.1406C485.838 37.1406 488.221 36.6885 489.895 35.3951L487.449 32.2299C486.831 32.7074 485.542 33.1406 483.164 33.1406V37.1406ZM489.895 35.3951C491.689 34.0086 492.391 31.8951 492.391 29.5547H488.391C488.391 31.1205 487.946 31.8456 487.449 32.2299L489.895 35.3951ZM492.391 29.5547C492.391 27.3355 491.716 25.3565 490.203 23.8436L487.375 26.672C487.997 27.2945 488.391 28.1801 488.391 29.5547H492.391ZM490.203 23.8436C488.641 22.2813 486.492 21.6562 484.102 21.6562V25.6562C485.826 25.6562 486.802 26.0989 487.375 26.672L490.203 23.8436ZM484.102 21.6562H482.539V25.6562H484.102V21.6562ZM480.539 23.6562V35.1406H484.539V23.6562H480.539ZM580.82 11.3906H582.82V9.39062H580.82V11.3906ZM580.82 56.0391H578.82V58.0391H580.82V56.0391ZM603.945 56.0391H605.945V54.0391H603.945V56.0391ZM603.945 71V73H605.945V71H603.945ZM554.414 71H552.414V73H554.414V71ZM554.414 11.3906V9.39062H552.414V11.3906H554.414ZM578.82 11.3906V56.0391H582.82V11.3906H578.82ZM580.82 58.0391H603.945V54.0391H580.82V58.0391ZM601.945 56.0391V71H605.945V56.0391H601.945ZM603.945 69H554.414V73H603.945V69ZM556.414 71V11.3906H552.414V71H556.414ZM554.414 13.3906H580.82V9.39062H554.414V13.3906ZM662.93 11.3906L664.819 10.7344L664.352 9.39062H662.93V11.3906ZM683.633 71V73H686.445L685.522 70.3438L683.633 71ZM657.266 71L655.373 71.6456L655.835 73H657.266V71ZM653.828 60.9219L655.721 60.2762L655.259 58.9219H653.828V60.9219ZM634.453 60.9219V58.9219H633.022L632.56 60.2762L634.453 60.9219ZM631.016 71V73H632.447L632.909 71.6456L631.016 71ZM604.609 71L602.72 70.3438L601.798 73H604.609V71ZM625.312 11.3906V9.39062H623.89L623.423 10.7344L625.312 11.3906ZM639.258 46.8594L637.358 46.233L636.492 48.8594H639.258V46.8594ZM649.023 46.8594V48.8594H651.789L650.923 46.233L649.023 46.8594ZM644.219 32.2891L646.118 31.6627L645.665 30.2891H644.219V32.2891ZM644.062 32.2891V30.2891H642.616L642.163 31.6627L644.062 32.2891ZM661.04 12.0468L681.744 71.6562L685.522 70.3438L664.819 10.7344L661.04 12.0468ZM683.633 69H657.266V73H683.633V69ZM659.159 70.3544L655.721 60.2762L651.935 61.5675L655.373 71.6456L659.159 70.3544ZM653.828 58.9219H634.453V62.9219H653.828V58.9219ZM632.56 60.2762L629.123 70.3544L632.909 71.6456L636.346 61.5675L632.56 60.2762ZM631.016 69H604.609V73H631.016V69ZM606.499 71.6562L627.202 12.0468L623.423 10.7344L602.72 70.3438L606.499 71.6562ZM625.312 13.3906H662.93V9.39062H625.312V13.3906ZM639.258 48.8594H649.023V44.8594H639.258V48.8594ZM650.923 46.233L646.118 31.6627L642.319 32.9154L647.124 47.4857L650.923 46.233ZM644.219 30.2891H644.062V34.2891H644.219V30.2891ZM642.163 31.6627L637.358 46.233L641.157 47.4857L645.962 32.9154L642.163 31.6627ZM740.273 13.8125L739.396 15.6098L739.408 15.6153L740.273 13.8125ZM747.734 20.3359L746.022 21.3697L746.027 21.3769L746.031 21.3841L747.734 20.3359ZM748.477 36.7422L746.704 35.8149L746.7 35.8231L746.696 35.8312L748.477 36.7422ZM743.438 42.4453L742.284 40.8114L740.459 42.1L741.941 43.7721L743.438 42.4453ZM751.172 55.1406L749.313 55.8782L749.318 55.8904L751.172 55.1406ZM754.961 71V73H757.178L756.95 70.7948L754.961 71ZM727.578 71L725.583 71.1387L725.712 73H727.578V71ZM724.102 54.0859L722.324 55.0019L722.326 55.0074L724.102 54.0859ZM715.977 48.9297V46.9297H713.977V48.9297H715.977ZM715.977 71V73H717.977V71H715.977ZM689.609 71H687.609V73H689.609V71ZM689.609 11.3906V9.39062H687.609V11.3906H689.609ZM715.977 35.1406H713.977V37.1406H715.977V35.1406ZM715.977 23.6562V21.6562H713.977V23.6562H715.977ZM728.945 13.3906C732.933 13.3906 736.401 14.1476 739.396 15.6098L741.151 12.0152C737.531 10.2482 733.448 9.39062 728.945 9.39062V13.3906ZM739.408 15.6153C742.414 17.0592 744.584 18.9868 746.022 21.3697L749.447 19.3022C747.552 16.1642 744.748 13.7428 741.139 12.0097L739.408 15.6153ZM746.031 21.3841C747.501 23.7722 748.234 26.3771 748.234 29.2422H752.234C752.234 25.6489 751.301 22.3164 749.438 19.2877L746.031 21.3841ZM748.234 29.2422C748.234 31.71 747.713 33.8873 746.704 35.8149L750.249 37.6694C751.584 35.118 752.234 32.2952 752.234 29.2422H748.234ZM746.696 35.8312C745.709 37.7607 744.254 39.4208 742.284 40.8114L744.591 44.0792C747.048 42.3448 748.953 40.2029 750.257 37.6531L746.696 35.8312ZM741.941 43.7721C745.034 47.2614 747.493 51.2915 749.313 55.8782L753.031 54.4031C751.049 49.4065 748.351 44.9729 744.934 41.1186L741.941 43.7721ZM749.318 55.8904C751.166 60.46 752.389 65.56 752.971 71.2052L756.95 70.7948C756.335 64.8254 755.032 59.3525 753.026 54.3909L749.318 55.8904ZM754.961 69H727.578V73H754.961V69ZM729.573 70.8613C729.023 62.9506 727.848 56.9618 725.877 53.1645L722.326 55.0074C723.897 58.033 725.039 63.3202 725.583 71.1387L729.573 70.8613ZM725.88 53.17C724.87 51.2095 723.548 49.6266 721.868 48.5396C720.178 47.4464 718.242 46.9297 716.133 46.9297V50.9297C717.566 50.9297 718.728 51.2724 719.695 51.8979C720.671 52.5296 721.563 53.5249 722.324 55.0019L725.88 53.17ZM716.133 46.9297H715.977V50.9297H716.133V46.9297ZM713.977 48.9297V71H717.977V48.9297H713.977ZM715.977 69H689.609V73H715.977V69ZM691.609 71V11.3906H687.609V71H691.609ZM689.609 13.3906H728.945V9.39062H689.609V13.3906ZM715.977 37.1406H716.602V33.1406H715.977V37.1406ZM716.602 37.1406C719.275 37.1406 721.659 36.6885 723.332 35.3951L720.886 32.2299C720.269 32.7074 718.98 33.1406 716.602 33.1406V37.1406ZM723.332 35.3951C725.127 34.0086 725.828 31.8951 725.828 29.5547H721.828C721.828 31.1205 721.384 31.8456 720.886 32.2299L723.332 35.3951ZM725.828 29.5547C725.828 27.3355 725.154 25.3565 723.641 23.8436L720.812 26.672C721.435 27.2945 721.828 28.1801 721.828 29.5547H725.828ZM723.641 23.8436C722.078 22.2813 719.93 21.6562 717.539 21.6562V25.6562C719.263 25.6562 720.239 26.0989 720.812 26.672L723.641 23.8436ZM717.539 21.6562H715.977V25.6562H717.539V21.6562ZM713.977 23.6562V35.1406H717.977V23.6562H713.977ZM787.852 11.3906H789.852V9.39062H787.852V11.3906ZM787.852 71V73H789.852V71H787.852ZM761.484 71H759.484V73H761.484V71ZM761.484 11.3906V9.39062H759.484V11.3906H761.484ZM785.852 11.3906V71H789.852V11.3906H785.852ZM787.852 69H761.484V73H787.852V69ZM763.484 71V11.3906H759.484V71H763.484ZM761.484 13.3906H787.852V9.39062H761.484V13.3906ZM852.227 11.3906L854.116 10.7344L853.649 9.39062H852.227V11.3906ZM872.93 71V73H875.742L874.819 70.3438L872.93 71ZM846.562 71L844.67 71.6456L845.132 73H846.562V71ZM843.125 60.9219L845.018 60.2762L844.556 58.9219H843.125V60.9219ZM823.75 60.9219V58.9219H822.319L821.857 60.2762L823.75 60.9219ZM820.312 71V73H821.743L822.205 71.6456L820.312 71ZM793.906 71L792.017 70.3438L791.094 73H793.906V71ZM814.609 11.3906V9.39062H813.187L812.72 10.7344L814.609 11.3906ZM828.555 46.8594L826.655 46.233L825.789 48.8594H828.555V46.8594ZM838.32 46.8594V48.8594H841.086L840.22 46.233L838.32 46.8594ZM833.516 32.2891L835.415 31.6627L834.962 30.2891H833.516V32.2891ZM833.359 32.2891V30.2891H831.913L831.46 31.6627L833.359 32.2891ZM850.337 12.0468L871.04 71.6562L874.819 70.3438L854.116 10.7344L850.337 12.0468ZM872.93 69H846.562V73H872.93V69ZM848.455 70.3544L845.018 60.2762L841.232 61.5675L844.67 71.6456L848.455 70.3544ZM843.125 58.9219H823.75V62.9219H843.125V58.9219ZM821.857 60.2762L818.42 70.3544L822.205 71.6456L825.643 61.5675L821.857 60.2762ZM820.312 69H793.906V73H820.312V69ZM795.796 71.6562L816.499 12.0468L812.72 10.7344L792.017 70.3438L795.796 71.6562ZM814.609 13.3906H852.227V9.39062H814.609V13.3906ZM828.555 48.8594H838.32V44.8594H828.555V48.8594ZM840.22 46.233L835.415 31.6627L831.616 32.9154L836.421 47.4857L840.22 46.233ZM833.516 30.2891H833.359V34.2891H833.516V30.2891ZM831.46 31.6627L826.655 46.233L830.454 47.4857L835.259 32.9154L831.46 31.6627Z" fill="#9ECFE3"/>
</g>
<defs>
<filter id="filter0_d_2_30" x="0.859375" y="0.453125" width="882.07" height="81.5234" filterUnits="userSpaceOnUse" color-interpolation-filters="sRGB">
<feFlood flood-opacity="0" result="BackgroundImageFix"/>
<feColorMatrix in="SourceAlpha" type="matrix" values="0 0 0 0 0 0 0 0 0 0 0 0 0 0 0 0 0 0 127 0" result="hardAlpha"/>
<feOffset/>
<feGaussianBlur stdDeviation="5"/>
<feComposite in2="hardAlpha" operator="out"/>
<feColorMatrix type="matrix" values="0 0 0 0 0.12549 0 0 0 0 0.505882 0 0 0 0 0.705882 0 0 0 1 0"/>
<feBlend mode="normal" in2="BackgroundImageFix" result="effect1_dropShadow_2_30"/>
<feBlend mode="normal" in="SourceGraphic" in2="effect1_dropShadow_2_30" result="shape"/>
</filter>
<linearGradient id="paint0_linear_2_30" x1="439.5" y1="-9" x2="439.5" y2="91" gradientUnits="userSpaceOnUse">
<stop stop-color="#D7FDFE"/>
<stop offset="1" stop-color="#FBFFFE"/>
</linearGradient>
</defs>
</svg>
