<svg width="93" height="78" viewBox="0 0 93 78" fill="none" xmlns="http://www.w3.org/2000/svg">
<path fill-rule="evenodd" clip-rule="evenodd" d="M82.2632 0.104179C82.1647 0.161664 82.0365 0.29748 81.9785 0.40605C81.8601 0.627525 79.6746 8.69299 79.4822 9.61862C79.3962 10.0327 79.3895 10.3306 79.4602 10.5991C79.5428 10.9123 79.4334 11.827 78.8775 15.474C78.1245 20.4132 78.0904 20.6031 77.94 20.6961C77.8828 20.7315 77.5818 20.4977 77.2711 20.1768C76.6819 19.5679 76.1621 18.6208 76.0488 17.9495C76.0106 17.7239 76.0946 16.6865 76.2462 15.5093C76.6805 12.1346 77.4411 5.18396 77.4411 4.58868C77.4411 4.11168 77.4027 4.00321 77.1694 3.81951C77.02 3.70186 76.7673 3.60557 76.608 3.60557C76.0306 3.60557 75.8522 3.9191 74.9631 6.49527C73.9606 9.40024 73.8904 9.67095 74.0182 10.1342C74.0959 10.416 74.0273 10.8751 73.6689 12.4715C73.4129 13.6112 73.1338 14.5975 73.0141 14.7854C72.4772 15.6272 72.4405 15.755 72.586 16.2769C72.6608 16.5448 72.7561 17.2981 72.7977 17.9509C72.9578 20.4542 73.6174 21.5564 76.4946 24.1277C77.5791 25.0969 77.7065 25.3318 77.5558 26.0831C77.4933 26.3945 77.3899 26.7122 77.3259 26.7893C77.1559 26.9943 76.2716 26.9638 75.4038 26.7232C73.9303 26.3145 73.6871 26.4505 73.466 27.8068C73.2942 28.8612 73.3401 29.2496 73.6604 29.4494C73.7856 29.5275 74.3396 29.6162 74.9233 29.6517C76.1383 29.7255 76.6161 29.8611 76.6161 30.1318C76.6161 30.3444 76.007 34.2849 75.9698 34.3135C75.9566 34.3235 75.3774 34.5333 74.6827 34.7798C73.7827 35.099 73.4194 35.275 73.4194 35.3923C73.4194 35.4827 73.5092 35.9726 73.6189 36.4808C73.9535 38.0313 74.0704 39.4468 74.0064 41.1712C73.9231 43.4147 73.5 45.2474 72.6378 47.0996L72.2985 47.8283L72.2918 45.9082C72.2729 40.5147 71.4767 36.4948 69.6994 32.8213L68.9798 31.3339L69.4868 30.1896C70.4472 28.0217 70.915 26.1166 71.0149 23.9669C71.1411 21.2494 70.5635 18.9553 69.233 16.8896C68.6125 15.9263 67.8329 14.9588 67.6768 14.9584C67.608 14.9582 67.5267 15.1731 67.4915 15.4482C67.2844 17.0647 66.5403 19.0037 65.6051 20.3639C64.7378 21.6251 63.3045 23.023 61.9953 23.8846L61.5534 24.1753L60.5516 23.6993C57.8336 22.408 54.9835 21.6256 51.4549 21.2021C49.5621 20.9749 45.305 20.8877 43.3085 21.0353C39.0079 21.353 35.5312 22.1821 32.5578 23.5992L31.3458 24.1768L30.7826 23.7887C28.7503 22.3879 27.042 20.3431 26.1874 18.2884C25.7878 17.3278 25.4688 16.0938 25.4688 15.5091C25.4688 15.1454 25.4336 15.0612 25.2818 15.0612C24.9223 15.0612 23.9064 16.3875 23.1746 17.8124C21.3625 21.3405 21.4438 25.5068 23.4151 30.1401L23.9248 31.3381L23.26 32.7202C21.4606 36.4608 20.6379 40.6192 20.6182 46.0738L20.6122 47.7251L20.3052 47.1298C19.8951 46.3345 19.4485 44.9719 19.1643 43.6486C18.8296 42.0894 18.8316 38.9957 19.1684 37.1983C19.2962 36.5172 19.4249 35.7964 19.4546 35.5966L19.5086 35.2333L9.879 31.7523C4.58267 29.8376 0.192861 28.2712 0.123771 28.2712C-0.199613 28.2712 0.0931439 28.6199 1.20983 29.5645C2.87026 30.969 5.47579 33.5981 6.32055 34.7214C8.63476 37.799 8.33788 39.3784 5.37494 39.7526C4.7688 39.8292 4.43232 39.9165 4.43232 39.9972C4.43232 40.0663 4.83841 40.3386 5.33462 40.6024C7.70039 41.8599 9.83342 43.6514 10.3753 44.8361C10.7113 45.5706 10.7286 46.131 10.4332 46.7078C10.2119 47.1398 9.5252 47.8099 9.09849 48.0105C8.656 48.2183 8.81821 48.4431 9.55211 48.6388C10.642 48.9295 12.8217 49.8155 14.279 50.5602C16.7139 51.8045 19.0027 53.3672 21.0705 55.197C22.0218 56.0389 22.0597 56.0898 22.3818 56.9515C24.7404 63.2627 29.493 67.6184 36.1255 69.5472C40.3961 70.7891 45.8551 71.1851 51.1022 70.6337C57.8762 69.9217 63.2853 67.4144 66.7997 63.3571C68.295 61.6307 69.6778 59.2917 70.428 57.2198C70.7523 56.3243 70.7998 56.2567 71.7534 55.3364C72.2974 54.8114 72.7789 54.3817 72.8232 54.3817C72.8675 54.3817 72.9038 54.4468 72.9038 54.5262C72.9038 54.6057 72.1393 59.691 71.2049 65.827C69.9528 74.0489 69.5312 77.0497 69.6019 77.2359C69.7487 77.6221 70.0835 77.771 71.1308 77.9149C72.0422 78.0403 72.1045 78.0365 72.3674 77.84C72.5197 77.7263 72.6792 77.4985 72.7219 77.334C72.7646 77.1695 73.6611 71.3458 74.7143 64.3925C75.792 57.2763 76.6826 51.698 76.7514 51.631C76.9904 51.399 78.8523 50.423 80.1746 49.8367C81.4886 49.2542 83.5844 48.4991 83.8876 48.4991C84.214 48.4991 84.0098 48.1221 83.4957 47.7752C82.3222 46.9833 81.9955 45.9302 82.5662 44.7782C83.1492 43.6015 85.5222 41.6523 87.7785 40.497C88.2177 40.272 88.5773 40.0366 88.5776 39.9739C88.5778 39.9077 88.279 39.8319 87.8684 39.7937C86.697 39.6847 85.8771 39.3797 85.4331 38.8879C85.0627 38.4775 85.0509 38.441 85.0904 37.8205C85.1634 36.6724 86.015 35.2866 87.9775 33.1218C88.9731 32.0236 91.0503 30.0859 92.3099 29.08C93.0017 28.5279 93.1688 28.2694 92.8317 28.2734C92.7325 28.2745 89.707 29.3412 86.1085 30.6438C82.51 31.9463 79.5486 32.9949 79.5274 32.9738C79.5064 32.9526 79.5739 32.3852 79.6776 31.7128L79.8661 30.4901L80.2392 30.4588C80.4444 30.4416 80.9853 30.5229 81.4414 30.6394C83.0002 31.0378 83.2758 30.9328 83.4827 29.8629C83.694 28.7692 83.6709 28.3045 83.391 28.0244C83.1822 27.8154 83.0225 27.7803 82.0566 27.731C81.289 27.6917 80.8415 27.6172 80.5666 27.4829C80.1771 27.2924 80.1739 27.2858 80.1855 26.7007C80.1928 26.3366 80.2644 26.0081 80.3726 25.8428C80.6169 25.4697 81.3157 25.0489 82.4251 24.607C83.8015 24.0588 84.5858 23.5898 85.3794 22.8405C86.277 21.993 86.8722 21.0755 87.2406 19.9713C87.401 19.4901 87.6516 18.9208 87.7974 18.7061C88.1032 18.2558 88.1263 17.9503 87.9023 17.3188C87.7569 16.909 87.7579 16.6725 87.913 14.7651C88.0522 13.0516 88.1222 12.598 88.2912 12.3113C88.5435 11.8833 88.5508 11.6855 88.4361 8.3843C88.355 6.04489 88.3262 5.76283 88.1498 5.57325C88.0419 5.45735 87.834 5.33247 87.6878 5.29573C87.3621 5.21389 86.7624 5.47964 86.6826 5.74116C86.5516 6.17018 84.8417 15.1231 84.4647 17.3531C84.3524 18.0176 84.1679 18.7708 84.0548 19.0268C83.6838 19.8661 82.4115 21.0158 81.6432 21.2057C81.3764 21.2716 81.3597 21.2553 81.3597 20.9302C81.3597 20.3785 82.6999 11.62 82.8104 11.449C83.1944 10.8554 83.2172 10.6405 83.422 5.67305C83.5728 2.01252 83.5965 0.6557 83.5127 0.471688C83.324 0.0572222 82.6725 -0.134427 82.2632 0.104179ZM49.0359 35.9626C53.0693 36.5924 55.6662 38.9758 56.4549 42.7713C57.1425 46.0804 56.6426 49.839 55.2186 52.067C53.9221 54.0954 51.8298 55.3169 48.8398 55.7909C48.0403 55.9176 47.3493 55.9429 45.8384 55.9009C43.5016 55.8359 42.2754 55.5806 40.782 54.8483C39.087 54.0171 38.1015 53.0305 37.2752 51.3372C36.5051 49.759 36.1983 48.2046 36.1957 45.8674C36.1888 39.7304 39.1171 36.3607 44.9403 35.8046C46.0352 35.7 47.7876 35.7676 49.0359 35.9626ZM44.76 40.5033C44.3327 40.5807 43.6641 40.8054 43.247 41.0117C41.583 41.8348 40.7371 43.4565 40.7322 45.8326C40.7263 48.8125 41.9466 50.585 44.4641 51.2535C45.3611 51.4917 47.5509 51.4898 48.4645 51.2499C50.9887 50.5872 52.1799 48.8789 52.175 45.9283C52.1718 43.9714 51.7206 42.6737 50.7167 41.7339C49.4668 40.5638 47.1118 40.0773 44.76 40.5033ZM46.0343 42.9235C46.4512 43.0822 46.7312 43.6172 46.6768 44.151C46.5342 45.5513 44.4394 45.6094 44.1789 44.2203C44.0955 43.7751 44.3842 43.1374 44.7521 42.9543C45.0623 42.7999 45.6712 42.7854 46.0343 42.9235Z" fill="#656462"/>
</svg>
