<svg width="188" height="35" viewBox="0 0 188 35" fill="none" xmlns="http://www.w3.org/2000/svg">
<path fill-rule="evenodd" clip-rule="evenodd" d="M60.3365 0.166478C60.0068 1.17672 59.1977 4.46311 59.2472 4.59167C59.3331 4.81498 58.6925 8.94313 58.5499 9.08539C58.4886 9.14661 58.2415 8.97267 58.0005 8.69892C57.5629 8.20145 57.5627 8.20052 57.6474 7.12825C57.6939 6.53829 57.8459 5.09725 57.9851 3.92611C58.1244 2.75497 58.1884 1.74393 58.1274 1.67925C57.8709 1.40722 57.6021 1.78572 57.2029 2.98161C56.9696 3.68044 56.8085 4.30048 56.8451 4.3593C56.933 4.5013 56.4706 6.47202 56.2991 6.68628C56.079 6.96163 56.3479 8.60775 56.7156 9.23378C56.8935 9.53682 57.345 10.0421 57.719 10.3567C58.2401 10.7953 58.3988 11.0164 58.3988 11.3039C58.3988 11.8607 58.14 12.0107 57.4468 11.8553C56.7721 11.704 56.6488 11.7845 56.6197 12.3948C56.5989 12.8338 56.6101 12.843 57.3057 12.9616L58.013 13.0822L57.9205 13.8211C57.7622 15.0856 57.7014 15.2041 57.1103 15.4008L56.57 15.5804L56.6973 16.2745C56.9031 17.3966 56.7563 19.507 56.4105 20.3953C56.2466 20.8161 56.057 21.1605 55.9888 21.1605C55.9208 21.1605 55.8651 20.5561 55.8651 19.8173C55.8651 18.1132 55.4635 16.1045 54.8638 14.8092L54.4114 13.8321L54.6695 13.2312C55.645 10.9599 55.5033 8.64156 54.2919 7.05652L53.9378 6.59326L53.8389 7.17191C53.6775 8.11534 53.2028 8.93075 52.2927 9.82787C51.3287 10.7781 51.4831 10.7604 49.7451 10.1207C47.9402 9.4563 46.5614 9.2769 43.8631 9.35516C41.3468 9.42822 40.0645 9.66019 38.5971 10.3078C38.1747 10.4944 37.7479 10.6469 37.6489 10.6469C37.3359 10.6469 35.9131 9.14209 35.5501 8.42729C35.3585 8.04986 35.1609 7.48638 35.111 7.17537L35.0204 6.60963L34.7549 6.93142C34.6089 7.10843 34.3167 7.6184 34.1056 8.0649C33.4292 9.49543 33.4594 11.129 34.1964 12.9675L34.5409 13.8268L34.2514 14.3931C33.5166 15.8305 33.0628 17.968 33.0618 19.9961C33.0616 20.6366 33.0094 21.1605 32.9461 21.1605C32.8113 21.1605 32.474 20.3024 32.2488 19.3863C32.0914 18.7464 32.1426 16.2685 32.3224 15.8225C32.394 15.6449 31.7306 15.3638 28.4343 14.1748C26.2483 13.3863 24.3699 12.7114 24.2599 12.6749C24.1498 12.6385 24.5504 13.0663 25.15 13.6257C27.0531 15.4009 27.7771 16.8384 27.0306 17.36C26.8676 17.474 26.5976 17.5673 26.4305 17.5673C25.9628 17.5673 26.0674 17.7733 26.7323 18.1621C27.6043 18.6721 28.2732 19.2951 28.4804 19.79C28.7217 20.3662 28.7149 20.4103 28.3107 20.8898C28.1181 21.1181 27.9831 21.3208 28.0106 21.3401C28.0381 21.3595 28.4814 21.5364 28.9957 21.7332C30.1592 22.1782 31.6787 23.066 32.7279 23.9137C33.3999 24.4566 33.6195 24.7494 34.0999 25.7421C35.4233 28.4782 37.3187 29.9912 40.4797 30.835C41.6946 31.1593 42.0017 31.1865 44.4632 31.1865C46.9204 31.1865 47.2332 31.1589 48.4377 30.8372C51.645 29.9808 53.8406 28.2251 54.8802 25.6854C55.1037 25.1394 55.4318 24.6354 55.7696 24.3189C56.064 24.0431 56.3229 23.8355 56.345 23.8576C56.3671 23.8796 56.0319 26.2014 55.6002 29.0169C55.1684 31.8326 54.8598 34.1816 54.9144 34.2371C54.9689 34.2925 55.2486 34.3524 55.5358 34.3702L56.058 34.4024L56.9454 28.6234C57.6899 23.7738 57.8727 22.8144 58.0824 22.6575C58.507 22.3397 59.3615 21.9278 60.228 21.6233L61.0572 21.3318L60.7281 21.0233C60.4888 20.7989 60.3991 20.5752 60.3991 20.2022C60.3991 19.7739 60.4956 19.5933 60.9847 19.1052C61.3069 18.7838 61.8769 18.3461 62.2514 18.1326C62.9445 17.7375 63.0025 17.5673 62.4439 17.5673C62.0207 17.5673 61.5993 17.1154 61.5993 16.6618C61.5993 16.0919 62.3085 15.0973 63.6506 13.7851C64.3194 13.1313 64.7465 12.6413 64.5998 12.6961C63.5035 13.1063 59.2093 14.6394 59.1568 14.6394C59.0521 14.6394 59.2205 13.5212 59.3458 13.3852C59.4148 13.31 59.691 13.3152 60.0556 13.3985C60.7616 13.5597 60.9326 13.449 60.9326 12.8304C60.9326 12.3601 60.7619 12.2439 60.0712 12.2439C58.9746 12.2439 59.212 11.3373 60.472 10.7134C61.7627 10.0742 61.9739 9.87645 62.4621 8.8497C62.8083 8.12173 62.9034 7.77358 62.8486 7.43555C62.8086 7.18881 62.8435 6.53789 62.9262 5.98892C63.1215 4.69241 63.1036 2.50091 62.8968 2.37342C62.6666 2.23142 62.4432 2.47722 62.3605 2.96338C62.3203 3.20014 62.0701 4.53138 61.8044 5.92171C61.3589 8.25428 61.2898 8.48239 60.9122 8.87126C60.5088 9.28648 60.0503 9.50754 59.946 9.33679C59.8733 9.21768 60.5025 5.20612 60.659 4.79116C60.728 4.60817 60.8251 3.45539 60.8747 2.22929C60.9646 0.00824033 60.9639 0.00012207 60.6778 0.00012207C60.52 0.00012207 60.3663 0.0750486 60.3365 0.166478ZM84.5364 1.81087C82.8128 2.35212 80.998 2.91707 80.5035 3.06639L79.6043 3.33788L80.0689 4.25869C80.3246 4.76508 80.6518 5.61602 80.7964 6.14982C81.0968 7.25908 81.0931 7.23073 82.5489 19.3639C83.7272 29.1847 83.8706 31.4106 83.428 33.0049C83.3162 33.4074 83.2349 33.7462 83.2472 33.7579C83.2594 33.7696 85.4599 33.5164 88.137 33.1952C90.8141 32.874 93.0465 32.6099 93.098 32.6085C93.1493 32.607 92.9845 32.1711 92.7317 31.6397C91.7066 29.4856 90.9107 24.7461 91.5756 24.7551C91.628 24.7558 93.3212 26.292 95.3382 28.1689C97.4726 30.1549 99.2285 31.683 99.5389 31.8245C99.8323 31.9582 100.308 32.0689 100.597 32.0705C101.579 32.076 102.12 31.666 104.474 29.1323C105.7 27.8136 106.681 26.7142 106.654 26.6891C106.628 26.6642 105.836 26.3117 104.895 25.9058C103.953 25.4999 102.483 24.7721 101.627 24.2882C100.04 23.3905 96.5065 20.995 96.4287 20.7641C96.3623 20.5674 100.08 16.9286 101.208 16.0856C101.759 15.6739 102.586 15.1292 103.045 14.8752L103.88 14.4134L101.606 12.63C98.9244 10.5266 98.4678 10.2801 97.6865 10.5137C95.7874 11.0815 92.5267 14.8618 90.6554 18.6652C90.4123 19.1593 90.174 19.5635 90.126 19.5635C90.0779 19.5635 89.9971 19.1294 89.9465 18.5987C89.8959 18.0679 89.4081 13.8767 88.8624 9.28462C88.3168 4.69254 87.8703 0.904564 87.8703 0.867034C87.8703 0.763494 87.8879 0.758437 84.5364 1.81087ZM23.2597 2.77453C22.5169 3.12321 20.8589 4.33268 19.1257 5.78983C16.4718 8.02112 13.5036 11.2677 10.9865 14.6926L10.3242 15.5936L10.283 14.4844C10.2183 12.7477 10.5087 7.22754 10.7227 6.122C10.8343 5.54522 11.1368 4.68855 11.4392 4.09247L11.9625 3.06106H5.98125H0L0.459276 3.96324C0.711851 4.45951 1.05377 5.34279 1.219 5.92624L1.51945 6.98705L1.52118 18.3658C1.52305 31.1685 1.54039 30.9168 0.515952 32.9518L0.0201366 33.9366H5.99499H11.9698L11.588 33.1714C10.7727 31.5374 10.4601 29.7136 10.3096 25.7116L10.2179 23.2757L10.6712 22.8889C10.9205 22.6762 11.1944 22.4998 11.2799 22.4968C11.3655 22.4938 12.444 23.794 13.6768 25.386C17.3871 30.1778 21.2212 33.7663 23.2302 34.3276C24.831 34.7749 26.6531 33.9272 30.8925 30.7624C31.9367 29.983 32.7919 29.3002 32.7929 29.2454C32.7938 29.1906 32.7154 29.1456 32.6187 29.1456C32.5219 29.1456 31.6067 28.7324 30.585 28.2275C28.5042 27.199 25.4345 25.211 23.3264 23.5266C21.9227 22.4051 17.0587 17.8917 17.0587 17.7107C17.0587 17.5536 22.0694 12.894 23.6598 11.5722C25.2694 10.2344 27.8825 8.30552 29.4923 7.26706L30.5241 6.60137L27.5516 4.63345C25.9167 3.55121 24.4023 2.63373 24.1861 2.59487C23.9454 2.55148 23.5864 2.62109 23.2597 2.77453ZM176.152 9.795C175.968 9.82667 175.248 9.94805 174.551 10.0649C172.159 10.466 169.471 11.4948 168.635 12.3287C168.289 12.6739 168.26 12.7733 168.323 13.385C168.382 13.9527 169.298 17.5493 169.415 17.6741C169.436 17.6964 169.882 17.4376 170.406 17.0993C172.162 15.9657 174.298 15.2151 176.138 15.0847C177.997 14.9531 178.602 15.4572 178.525 17.0737L178.485 17.9L177.352 18.0002C173.661 18.3265 170.65 19.4243 169.231 20.9612C167.395 22.9493 167.151 26.6292 168.697 29.0331C170.143 31.2813 173.091 32.1675 176.334 31.3287C177.267 31.0874 178.735 30.3753 179.331 29.8746C179.632 29.6219 179.766 29.5721 179.803 29.6996C179.832 29.7974 179.923 30.1276 180.006 30.4333C180.098 30.7718 180.324 31.1291 180.583 31.3468C180.95 31.6553 181.092 31.6944 181.614 31.6311C182.116 31.5701 187.81 29.5329 187.995 29.3479C188.027 29.316 187.893 29.0992 187.696 28.8661C187.281 28.3734 186.79 27.4435 186.545 26.6835C186.421 26.3004 186.35 24.4916 186.29 20.2289C186.21 14.5962 186.191 14.2644 185.912 13.4416C185.341 11.7581 184.342 10.8066 182.468 10.1607C181.493 9.82441 181.246 9.797 178.952 9.76838C177.595 9.75148 176.335 9.76346 176.152 9.795ZM111.585 10.9081C109.922 10.9474 108.532 11.0101 108.495 11.0472C108.457 11.0845 108.512 11.4737 108.615 11.9122C109.003 13.5598 108.876 15.4366 107.996 21.0107C107.056 26.9613 107.017 27.8852 107.65 29.1751C108.34 30.5841 109.78 31.5482 112.131 32.1747C113.234 32.469 113.698 32.517 115.542 32.5273C117.713 32.5395 118.191 32.452 119.756 31.7559C119.936 31.6758 119.982 31.8006 120.052 32.5516C120.098 33.0414 120.152 33.4521 120.172 33.4641C120.229 33.4983 128.45 33.1433 128.488 33.1051C128.506 33.0865 128.429 32.7419 128.316 32.3395C128.184 31.8702 128.106 31.0108 128.1 29.9441C128.092 28.5284 128.204 27.5768 128.853 23.5561C129.892 17.1232 130.349 15.3692 131.347 13.9707C131.561 13.6706 131.587 13.5592 131.454 13.5144C131.173 13.4201 121.947 12.0011 121.9 12.0451C121.877 12.0669 121.922 12.431 122 12.8542C122.329 14.6313 122.192 16.2282 121.12 23.0784L120.747 25.4621L119.907 25.8543C119.166 26.2007 118.955 26.2402 118.105 26.1933C116.391 26.0986 115.596 25.4574 115.506 24.097C115.474 23.6165 115.788 21.2542 116.398 17.3676C116.916 14.0738 117.371 11.244 117.41 11.0794C117.49 10.7394 118.04 10.7556 111.585 10.9081ZM136.612 11.7016C134.485 12.1237 132.76 12.5232 132.778 12.5894C132.797 12.6555 132.96 13.1346 133.141 13.654C133.698 15.2504 133.779 16.6241 133.705 23.1201C133.634 29.37 133.574 30.0558 132.97 31.6409L132.703 32.3396H137.628H142.553L142.366 31.9736C141.707 30.6801 141.487 28.3973 141.483 22.8027L141.479 18.3895L141.913 18.0239C142.927 17.1684 144.377 16.8892 145.228 17.3856C145.462 17.5221 145.78 17.8734 145.933 18.1661C146.198 18.6689 146.216 18.9351 146.256 22.9572C146.304 27.8526 146.17 29.6316 145.631 31.2417L145.264 32.3396H150.121C154.688 32.3396 154.975 32.3257 154.903 32.1067C154.119 29.6998 154.015 28.64 154.015 23.0067L154.015 18.2652L154.759 17.7536C155.408 17.3075 155.617 17.2363 156.392 17.1972C157.451 17.1438 158.068 17.4145 158.482 18.1146C158.736 18.5446 158.749 18.8044 158.749 23.7557C158.749 29.1618 158.691 29.8886 158.128 31.5287C157.993 31.9244 157.882 32.2688 157.882 32.294C157.882 32.319 160.071 32.3396 162.747 32.3396H167.613L167.356 31.6898C166.714 30.0631 166.645 29.2201 166.557 21.8925C166.475 15.0227 166.472 14.9664 166.159 14.1804C165.587 12.7436 164.351 11.7382 162.532 11.2295C162.138 11.1193 161.006 10.9964 160.016 10.956C157.254 10.8436 155.322 11.2497 153.549 12.3155L152.765 12.7862L152.223 12.4003C149.313 10.3293 144.618 10.458 141.711 12.6884C141.362 12.9563 141.017 13.1755 140.945 13.1755C140.871 13.1755 140.812 12.8034 140.81 12.3437C140.809 11.4793 140.709 10.9055 140.563 10.9236C140.517 10.9294 138.739 11.2796 136.612 11.7016ZM67.6625 12.7026C66.4 12.8984 65.2751 13.2468 64.7741 13.5971C64.2819 13.9414 64.2116 14.559 64.3909 16.9682C64.4718 18.0567 64.554 18.9632 64.5734 18.9826C64.5929 19.002 65.1139 18.8147 65.7312 18.5662C67.3304 17.9227 68.9831 17.6544 70.9041 17.7263C73.3005 17.816 73.8372 18.2141 73.6896 19.7923C73.6441 20.2782 73.5544 20.7283 73.4901 20.7924C73.4233 20.8591 72.5773 20.8493 71.5127 20.7693C66.4535 20.3894 63.2573 21.5634 61.9894 24.2677C60.712 26.9919 61.0282 29.8591 62.8137 31.7433C64.0337 33.0306 65.801 33.6832 68.0671 33.6832C69.498 33.6832 70.5348 33.4711 71.701 32.9396L72.4011 32.6206L72.4019 33.0456C72.4042 34.3449 72.9591 35.002 74.0527 35.0001C74.6879 34.9991 80.3894 34.1271 80.503 34.0137C80.5313 33.9855 80.4299 33.7189 80.2777 33.4213C79.9122 32.7063 79.6067 31.3801 79.6043 30.4976C79.6032 30.1066 80.0524 27.522 80.6025 24.7538C81.6665 19.3992 81.7659 18.4462 81.3935 17.159C80.6923 14.7342 78.42 13.3774 73.9511 12.7151C72.3086 12.4717 69.1906 12.4655 67.6625 12.7026ZM46.3792 15.9545C47.93 16.4362 48.7939 17.5018 49.0691 19.2729C49.3344 20.9787 48.8531 22.8222 47.9095 23.7152C46.3216 25.2181 42.3546 25.1537 40.9106 23.6017C40.717 23.3936 40.4169 22.9539 40.2438 22.6245C39.96 22.0844 39.9291 21.8556 39.9291 20.2955C39.9291 18.659 39.9499 18.5232 40.3129 17.7854C40.7543 16.8884 41.4782 16.2976 42.5681 15.9451C43.5413 15.6304 45.3497 15.6347 46.3792 15.9545ZM43.5629 18.0164C42.7708 18.2355 42.4659 18.5075 42.1824 19.2482C41.9066 19.9686 41.9978 21.1873 42.364 21.6768C42.8583 22.3374 43.2881 22.5469 44.2616 22.6017C46.1149 22.7063 47.0204 21.8194 46.9051 20.0124C46.8686 19.441 46.764 19.0481 46.5821 18.7998C46.0332 18.0504 44.6956 17.7033 43.5629 18.0164ZM44.4537 18.9741C44.8448 19.3644 44.5691 20.0959 44.0307 20.0959C43.7512 20.0959 43.3297 19.7097 43.3297 19.4536C43.3297 19.1684 43.7268 18.765 44.0076 18.765C44.1377 18.765 44.3384 18.8591 44.4537 18.9741ZM178.8 24.1012C178.919 25.3748 178.924 25.8918 178.816 26.0213C178.346 26.5867 176.38 26.7956 175.659 26.3567C174.96 25.9317 174.777 25.5357 174.846 24.5954C174.901 23.8298 174.943 23.74 175.459 23.2835C176.07 22.7422 177.071 22.3858 178.027 22.3691L178.636 22.3583L178.8 24.1012ZM72.6094 25.3166C72.6481 25.3552 72.6054 26.1785 72.5146 27.1461C72.3262 29.1541 72.3632 29.1053 70.9239 29.2413C68.6974 29.4516 67.5459 27.2971 69.107 25.8419C69.6123 25.3709 70.4664 25.1485 71.57 25.2007C72.1031 25.2259 72.5707 25.278 72.6094 25.3166Z" fill="white"/>
</svg>
