<svg width="17" height="17" viewBox="0 0 17 17" fill="none" xmlns="http://www.w3.org/2000/svg">
<g clip-path="url(#clip0)">
<path d="M14.1065 9.22818C13.8316 8.88109 13.9103 8.72668 14.1065 8.41643C14.11 8.41288 16.3788 5.2778 16.6125 4.21459L16.614 4.21388C16.7301 3.82642 16.614 3.54167 16.0522 3.54167H14.1936C13.7204 3.54167 13.5022 3.78605 13.3854 4.05946C13.3854 4.05946 12.439 6.32472 11.1003 7.79309C10.6682 8.21738 10.4685 8.35338 10.2326 8.35338C10.1164 8.35338 9.93579 8.21738 9.93579 7.82992V4.21388C9.93579 3.74921 9.80333 3.54167 9.41162 3.54167H6.48904C6.19225 3.54167 6.01587 3.75842 6.01587 3.9603C6.01587 4.40088 6.68525 4.50217 6.75467 5.74176V8.4313C6.75467 9.02063 6.64771 9.12901 6.41042 9.12901C5.77858 9.12901 4.24504 6.85455 3.33625 4.25142C3.15279 3.74638 2.97358 3.54238 2.49688 3.54238H0.6375C0.106958 3.54238 0 3.78676 0 4.06017C0 4.54326 0.631833 6.94522 2.93817 10.1186C4.47525 12.2846 6.63992 13.4583 8.60908 13.4583C9.79271 13.4583 9.93721 13.1977 9.93721 12.7493C9.93721 10.6796 9.83025 10.4841 10.4231 10.4841C10.698 10.4841 11.1711 10.6201 12.2761 11.6648C13.5391 12.9037 13.7466 13.4583 14.4535 13.4583H16.3122C16.842 13.4583 17.1105 13.1977 16.9561 12.6834C16.6026 11.6018 14.2141 9.37693 14.1065 9.22818Z" fill="white"/>
</g>
<defs>
<clipPath id="clip0">
<rect width="17" height="17" fill="white"/>
</clipPath>
</defs>
</svg>
