<svg width="17" height="17" viewBox="0 0 17 17" fill="none" xmlns="http://www.w3.org/2000/svg">
<path fill-rule="evenodd" clip-rule="evenodd" d="M14.1372 2.83906C12.6462 1.34628 10.6632 0.523825 8.5507 0.522949C4.19766 0.522949 0.654909 4.0656 0.653158 8.41981C0.652575 9.81172 1.01619 11.1705 1.70732 12.3681L0.586914 16.4604L4.77352 15.3622C5.9271 15.9915 7.22582 16.3231 8.54749 16.3235H8.5508C12.9034 16.3235 16.4465 12.7805 16.4481 8.42614C16.449 6.31586 15.6283 4.33174 14.1372 2.83906ZM8.5507 14.9897H8.54798C7.37018 14.9893 6.21504 14.6727 5.20708 14.0748L4.96749 13.9325L2.48309 14.5842L3.14621 12.162L2.99009 11.9136C2.333 10.8685 1.98602 9.66055 1.9866 8.4203C1.98796 4.80119 4.93266 1.85678 8.55333 1.85678C10.3066 1.85736 11.9547 2.54101 13.194 3.78175C14.4333 5.02249 15.1154 6.67169 15.1148 8.42565C15.1132 12.045 12.1687 14.9897 8.5507 14.9897ZM12.1512 10.0736C11.954 9.97475 10.9837 9.49752 10.8028 9.43157C10.6221 9.36571 10.4904 9.33293 10.3589 9.5304C10.2273 9.72787 9.84922 10.1724 9.73405 10.304C9.61888 10.4357 9.5039 10.4523 9.30653 10.3534C9.10916 10.2547 8.47337 10.0462 7.71959 9.37398C7.13302 8.85074 6.73701 8.20454 6.62184 8.00708C6.50686 7.80941 6.62087 7.71292 6.70842 7.60436C6.92203 7.33909 7.13594 7.06098 7.2017 6.92937C7.26755 6.79766 7.23457 6.68239 7.18516 6.58365C7.13594 6.48492 6.74129 5.51363 6.5769 5.1184C6.41659 4.73378 6.25405 4.78572 6.13284 4.77969C6.01786 4.77395 5.88625 4.77279 5.75464 4.77279C5.62312 4.77279 5.40931 4.8221 5.22838 5.01977C5.04755 5.21733 4.53783 5.69466 4.53783 6.66595C4.53783 7.63724 5.24492 8.57555 5.34355 8.70726C5.44219 8.83897 6.73507 10.8321 8.71451 11.6868C9.18532 11.8903 9.55283 12.0116 9.8395 12.1025C10.3123 12.2527 10.7423 12.2315 11.0824 12.1807C11.4616 12.124 12.2498 11.7033 12.4144 11.2424C12.5788 10.7814 12.5788 10.3864 12.5293 10.304C12.4801 10.2217 12.3485 10.1724 12.1512 10.0736Z" fill="white"/>
</svg>
