<svg width="21" height="21" viewBox="0 0 21 21" fill="none" xmlns="http://www.w3.org/2000/svg">
<g clip-path="url(#clip0)">
<path d="M4.10869 10.0425H3.0733L3.591 9.1459C3.71563 8.92673 3.63893 8.64802 3.41976 8.52339C3.20264 8.39996 2.92663 8.47392 2.80029 8.68936L2.28259 9.58596L1.7649 8.68936C1.6374 8.47186 1.35767 8.39889 1.14016 8.52643C0.924713 8.65273 0.850756 8.92878 0.974188 9.1459L1.49188 10.0425H0.456536C0.204407 10.0425 0 10.2469 0 10.499C0 10.7512 0.204407 10.9556 0.456536 10.9556H1.49193L0.974231 11.8522C0.848188 12.0705 0.922958 12.3497 1.14132 12.4758C1.21061 12.5161 1.2894 12.5372 1.36956 12.5369C1.53297 12.5373 1.68409 12.4502 1.76584 12.3087L2.28264 11.4121L2.80033 12.3087C2.88203 12.4502 3.03316 12.5373 3.19661 12.5369C3.27677 12.5372 3.3556 12.5161 3.42485 12.4758C3.64321 12.3497 3.71798 12.0705 3.59194 11.8522L3.0733 10.9555H4.10869C4.36082 10.9555 4.56523 10.7511 4.56523 10.499C4.56523 10.2469 4.36082 10.0425 4.10869 10.0425Z" fill="#2196F3"/>
<path d="M9.58716 10.0422H8.55177L9.06947 9.14561C9.1941 8.92644 9.11745 8.64773 8.89827 8.5231C8.68116 8.39962 8.4051 8.47358 8.2788 8.68907L7.76111 9.58567L7.24341 8.68907C7.11592 8.47157 6.83622 8.3986 6.61872 8.52609C6.40323 8.65239 6.32927 8.92845 6.45275 9.14557L6.97044 10.0422H5.93505C5.68292 10.0422 5.47852 10.2466 5.47852 10.4987C5.47852 10.7508 5.68292 10.9552 5.93505 10.9552H6.97044L6.45275 11.8518C6.3267 12.0702 6.40147 12.3494 6.61983 12.4755C6.68912 12.5158 6.76792 12.5369 6.84808 12.5366C7.01149 12.537 7.16261 12.4499 7.24435 12.3084L7.76115 11.4118L8.27885 12.3084C8.36055 12.4499 8.51167 12.537 8.67512 12.5366C8.75528 12.5369 8.83412 12.5158 8.90337 12.4755C9.12173 12.3494 9.1965 12.0702 9.07045 11.8518L8.55186 10.9552H9.58716C9.83929 10.9552 10.0437 10.7508 10.0437 10.4987C10.0437 10.2466 9.83929 10.0422 9.58716 10.0422Z" fill="#2196F3"/>
<path d="M15.0657 10.0422H14.0303L14.548 9.14561C14.6726 8.92644 14.596 8.64773 14.3768 8.5231C14.1597 8.39962 13.8836 8.47358 13.7573 8.68907L13.2396 9.58567L12.7219 8.68907C12.5944 8.47157 12.3147 8.3986 12.0972 8.52609C11.8817 8.65239 11.8078 8.92845 11.9313 9.14557L12.449 10.0422H11.4136C11.1614 10.0422 10.957 10.2466 10.957 10.4987C10.957 10.7508 11.1614 10.9552 11.4136 10.9552H12.449L11.9313 11.8518C11.8052 12.0702 11.88 12.3494 12.0983 12.4755C12.1676 12.5158 12.2464 12.5369 12.3266 12.5366C12.49 12.537 12.6411 12.4499 12.7229 12.3084L13.2397 11.4118L13.7574 12.3084C13.8391 12.4499 13.9902 12.537 14.1536 12.5366C14.2338 12.5369 14.3126 12.5158 14.3819 12.4755C14.6002 12.3494 14.675 12.0702 14.549 11.8518L14.0313 10.9552H15.0657C15.3178 10.9552 15.5222 10.7508 15.5222 10.4987C15.5222 10.2466 15.3178 10.0422 15.0657 10.0422Z" fill="#2196F3"/>
<path d="M20.5433 10.0422H19.5079L20.0256 9.14561C20.1502 8.92644 20.0735 8.64773 19.8543 8.52315C19.6372 8.39976 19.3612 8.47367 19.2349 8.68912L18.7172 9.58572L18.1995 8.68912C18.072 8.47162 17.7923 8.39869 17.5748 8.52623C17.3594 8.65257 17.2854 8.92854 17.4088 9.14566L17.9265 10.0423H16.8911C16.639 10.0423 16.4346 10.2467 16.4346 10.4988C16.4346 10.7509 16.639 10.9553 16.8911 10.9553H17.9265L17.4088 11.8519C17.2828 12.0703 17.3575 12.3495 17.5759 12.4755C17.6452 12.5159 17.724 12.537 17.8041 12.5367C17.9675 12.537 18.1187 12.45 18.2004 12.3085L18.7172 11.4119L19.2349 12.3085C19.3166 12.45 19.4677 12.537 19.6312 12.5367C19.7113 12.537 19.7902 12.5159 19.8594 12.4755C20.0778 12.3495 20.1525 12.0703 20.0265 11.8519L19.5088 10.9553H20.5433C20.7954 10.9553 20.9998 10.7509 20.9998 10.4988C20.9998 10.2466 20.7954 10.0422 20.5433 10.0422Z" fill="#2196F3"/>
<path d="M4.10869 10.9552H0.456536C0.204407 10.9552 0 10.7509 0 10.4987C0 10.2466 0.204407 10.0422 0.456536 10.0422H4.10869C4.36082 10.0422 4.56523 10.2466 4.56523 10.4987C4.56523 10.7509 4.36082 10.9552 4.10869 10.9552Z" fill="white"/>
<path d="M1.36958 12.5366C1.11745 12.5366 0.913043 12.3322 0.913086 12.0801C0.913086 12 0.934186 11.9212 0.974246 11.8519L2.8003 8.68817C2.93554 8.47538 3.21772 8.41255 3.43047 8.54784C3.63068 8.67512 3.70006 8.93452 3.59007 9.14471L1.76397 12.3084C1.68261 12.4493 1.53234 12.5363 1.36958 12.5366Z" fill="white"/>
<path d="M3.19542 12.5366C3.03231 12.5366 2.88162 12.4496 2.80009 12.3084L0.973983 9.14471C0.857099 8.9213 0.943468 8.64546 1.16688 8.52858C1.37706 8.41863 1.63647 8.48796 1.76375 8.68818L3.58985 11.8519C3.71594 12.0702 3.64113 12.3494 3.42277 12.4755C3.35339 12.5155 3.27464 12.5366 3.19452 12.5366H3.19542Z" fill="white"/>
<path d="M9.5872 10.9552H5.93505C5.68292 10.9552 5.47852 10.7508 5.47852 10.4987C5.47852 10.2466 5.68292 10.0422 5.93505 10.0422H9.5872C9.83933 10.0422 10.0437 10.2466 10.0437 10.4987C10.0437 10.7509 9.83933 10.9552 9.5872 10.9552Z" fill="white"/>
<path d="M6.84809 12.5366C6.59597 12.5366 6.39156 12.3322 6.3916 12.0801C6.3916 12 6.4127 11.9212 6.45276 11.8519L8.27882 8.68817C8.41406 8.47538 8.69623 8.41255 8.90899 8.54784C9.1092 8.67512 9.17853 8.93448 9.06858 9.14471L7.24249 12.3084C7.16112 12.4493 7.01086 12.5363 6.84809 12.5366Z" fill="white"/>
<path d="M8.67393 12.5366C8.51082 12.5366 8.36013 12.4496 8.27859 12.3084L6.4525 9.14471C6.33562 8.9213 6.42198 8.64546 6.64539 8.52858C6.85558 8.41863 7.11498 8.48796 7.24226 8.68818L9.06836 11.8519C9.19445 12.0702 9.11963 12.3494 8.90127 12.4755C8.8319 12.5155 8.75315 12.5366 8.67303 12.5366H8.67393Z" fill="white"/>
<path d="M15.0657 10.9552H11.4136C11.1614 10.9552 10.957 10.7508 10.957 10.4987C10.957 10.2466 11.1614 10.0422 11.4136 10.0422H15.0657C15.3178 10.0422 15.5222 10.2466 15.5222 10.4987C15.5222 10.7509 15.3178 10.9552 15.0657 10.9552Z" fill="white"/>
<path d="M12.3256 12.5366C12.0735 12.5366 11.8691 12.3322 11.8691 12.0801C11.8691 12 11.8902 11.9212 11.9303 11.8519L13.7564 8.68817C13.8916 8.47537 14.1738 8.41254 14.3865 8.54779C14.5867 8.67507 14.6561 8.93448 14.5461 9.14466L12.72 12.3084C12.6387 12.4493 12.4884 12.5363 12.3256 12.5366Z" fill="white"/>
<path d="M14.1515 12.5366C13.9884 12.5366 13.8377 12.4496 13.7561 12.3084L11.93 9.14471C11.8132 8.9213 11.8995 8.64546 12.1229 8.52858C12.3331 8.41863 12.5925 8.48796 12.7198 8.68818L14.5459 11.8519C14.672 12.0702 14.5972 12.3494 14.3788 12.4755C14.3095 12.5155 14.2307 12.5366 14.1506 12.5366H14.1515Z" fill="white"/>
<path d="M20.5433 10.9552H16.8911C16.639 10.9552 16.4346 10.7508 16.4346 10.4987C16.4346 10.2466 16.639 10.0422 16.8911 10.0422H20.5433C20.7954 10.0422 20.9998 10.2466 20.9998 10.4987C20.9998 10.7509 20.7954 10.9552 20.5433 10.9552Z" fill="white"/>
<path d="M17.8042 12.5366C17.552 12.5366 17.3476 12.3322 17.3477 12.0801C17.3477 12 17.3688 11.9212 17.4088 11.8519L19.2349 8.68817C19.3701 8.47538 19.6523 8.41255 19.8651 8.54784C20.0653 8.67512 20.1346 8.93448 20.0247 9.14471L18.1985 12.3084C18.1172 12.4493 17.9669 12.5363 17.8042 12.5366Z" fill="white"/>
<path d="M19.63 12.5366C19.4669 12.5366 19.3162 12.4496 19.2347 12.3084L17.4086 9.14471C17.2917 8.9213 17.378 8.64546 17.6014 8.52858C17.8116 8.41863 18.071 8.48796 18.1983 8.68818L20.0244 11.8519C20.1505 12.0702 20.0757 12.3494 19.8573 12.4755C19.788 12.5155 19.7092 12.5366 19.6291 12.5366H19.63Z" fill="white"/>
</g>
<defs>
<clipPath id="clip0">
<rect width="21" height="21" fill="white"/>
</clipPath>
</defs>
</svg>
