<svg width="23" height="23" viewBox="0 0 23 23" fill="none" xmlns="http://www.w3.org/2000/svg">
<g clip-path="url(#clip0)">
<path d="M15.2461 11.6179L23 16.5198V6.509L15.2461 11.6179Z" fill="white"/>
<path d="M0 6.509V16.5198L7.75388 11.6179L0 6.509Z" fill="white"/>
<path d="M21.5623 3.59375H1.43734C0.720031 3.59375 0.150781 4.1285 0.0429688 4.81706L11.4998 12.3654L22.9567 4.81706C22.8489 4.1285 22.2797 3.59375 21.5623 3.59375Z" fill="white"/>
<path d="M13.9293 12.4861L11.8952 13.8259C11.7745 13.9049 11.6379 13.9437 11.4999 13.9437C11.3619 13.9437 11.2253 13.9049 11.1046 13.8259L9.07052 12.4847L0.0458984 18.193C0.156586 18.8758 0.722961 19.4063 1.4374 19.4063H21.5624C22.2768 19.4063 22.8432 18.8758 22.9539 18.193L13.9293 12.4861Z" fill="white"/>
</g>
<defs>
<clipPath id="clip0">
<rect width="23" height="23" fill="white"/>
</clipPath>
</defs>
</svg>
